<svg xmlns="http://www.w3.org/2000/svg" viewBox="0 0 74.4 17.6">
    <path
        fill="#FFF"
        d="M16.5 7.4l1 10.1H0V0h74.4v17.6H15.5L15.9 7l3.2 3.5-.8 4.4 4-1.9 4.1 1.9-.8-4.2 3.2-3.4 2.1-.1 3.2 3.3-.9 4.5 4.1-2.1 3.8 2-.6-4.4 3-3.4h2.2l3.1 3.4-.9 4.7 4.2-2.2 4.1 2.2-.8-4.7 2.9-3.2 2.1-.2 3.2 3.2-.8 4.7 4.1-2.1 4.2 2.2-1-4.7 3.2-3.1-4.6-.6-1.8-3.9-2.1 3.8-3.8.7-3.1.3-4-.7-1.8-4.2-2 4.1-4.2.6-2.5.1-4.4-.8-1.8-3.8-2.2 4-6.4.7-4.2-.9-2.1-3.8-2 3.9-4.1.8-6.7-.8-2.1-3.9-1.8 4-4.5.5 3.2 3.2-.8 4.4 3.9-2 4 2-.7-4.4 3.4-3.4 2.4.2z"
    />
    <path
        fill="#059"
        d="M7.4 3.8l1.5 3.1.2.4.4.1 3.4.5-2.4 2.4-.3.3.1.4.6 3.4-3-1.6-.3-.2-.3.2-3 1.6.6-3.4.1-.4-.3-.3L2 7.7l3.4-.5.4-.1.2-.4 1.4-2.9m0-1.7L5.3 6.5l-4.9.7 3.5 3.4-.8 4.9 4.4-2.3 4.4 2.3-.9-4.9 3.5-3.4-4.9-.7-2.2-4.4zM22.3 3.8l1.5 3.1.2.3.4.1 3.4.5-2.4 2.4-.4.2.1.4.6 3.4-3-1.6-.3-.2-.4.1-3 1.6.6-3.4.1-.4-.3-.3L17 7.6l3.4-.5.4-.1.2-.4 1.3-2.8m0-1.7l-2.2 4.4-4.9.7 3.5 3.4-.8 4.9 4.4-2.3 4.4 2.3-.8-4.9 3.5-3.4-4.9-.7-2.2-4.4zM37.2 3.8l1.5 3.1.2.4.4.1 3.4.5-2.4 2.4-.3.3.1.4.6 3.4-3-1.6-.3-.2-.3.2-3 1.6.6-3.4.1-.4-.3-.3-2.4-2.4 3.4-.5.4-.1.2-.4 1.1-3.1m0-1.7L35 6.5l-4.9.7 3.5 3.4-.8 4.9 4.4-2.3 4.4 2.3-.8-4.9 3.5-3.4-4.9-.7-2.2-4.4zM52.1 3.8l1.5 3.1.2.4.4.1 3.4.5-2.4 2.4-.3.3.1.4.6 3.4-3-1.6-.3-.2-.3.2-3 1.6.6-3.4.1-.4-.3-.3L47 7.9l3-.7.4-.1.2-.4 1.5-2.9m0-1.7l-2.2 4.4-4.9.7 3.5 3.4-.8 4.9 4.4-2.3 4.4 2.3-.8-4.9 3.5-3.4-4.9-.7-2.2-4.4zM66.9 3.8l1.5 3.1.2.4.4-.1 3.4.5-2.4 2.4-.3.3.1.4.6 3.4-3-1.6-.3-.2-.3.2-3 1.6.6-3.4.1-.4-.3-.3-2.4-2.4 3.4-.5.4-.1.2-.4 1.1-2.9m0-1.7l-2.2 4.4-4.9.7 3.5 3.4-.8 4.9 4.4-2.3 4.4 2.3-.8-4.9L74 7.2l-4.9-.7-2.2-4.4z"
    />
</svg>